<svg width="24" height="22" viewBox="0 0 24 22" fill="none" xmlns="http://www.w3.org/2000/svg">
<path d="M20.0456 21.0005C20.5716 21.0005 20.998 20.5741 20.998 20.0481C20.998 19.5221 20.5716 19.0957 20.0456 19.0957C19.5197 19.0957 19.0933 19.5221 19.0933 20.0481C19.0933 20.5741 19.5197 21.0005 20.0456 21.0005Z" stroke="#C5C5C7" stroke-width="2" stroke-linecap="round" stroke-linejoin="round"/>
<path d="M9.56908 21.0005C10.0951 21.0005 10.5215 20.5741 10.5215 20.0481C10.5215 19.5221 10.0951 19.0957 9.56908 19.0957C9.04309 19.0957 8.6167 19.5221 8.6167 20.0481C8.6167 20.5741 9.04309 21.0005 9.56908 21.0005Z" stroke="#C5C5C7" stroke-width="2" stroke-linecap="round" stroke-linejoin="round"/>
<path d="M1.95068 1H5.76021L8.31259 13.7524C8.39968 14.1909 8.63822 14.5847 8.98644 14.865C9.33467 15.1454 9.7704 15.2943 10.2174 15.2857H19.4745C19.9214 15.2943 20.3572 15.1454 20.7054 14.865C21.0536 14.5847 21.2922 14.1909 21.3793 13.7524L22.9031 5.76191H6.71259" stroke="#C5C5C7" stroke-width="2" stroke-linecap="round" stroke-linejoin="round"/>
</svg>
