<svg width="22" height="19" viewBox="0 0 22 19" fill="none" xmlns="http://www.w3.org/2000/svg">
<path fill-rule="evenodd" clip-rule="evenodd" d="M13.3319 0.445715C14.0422 0.151456 14.8035 0 15.5723 0C16.3412 0 17.1025 0.151456 17.8128 0.445715C18.5229 0.739925 19.1681 1.17112 19.7116 1.71469C20.2554 2.25813 20.6867 2.90336 20.981 3.61353C21.2753 4.3237 21.4268 5.08489 21.4268 5.85361C21.4268 6.62233 21.2753 7.38351 20.981 8.09368C20.6868 8.80379 20.2555 9.44898 19.7117 9.99239C19.7117 9.99243 19.7118 9.99234 19.7117 9.99239L11.6422 18.0608C11.3172 18.3857 10.7903 18.3857 10.4653 18.0608L2.39575 9.99239C1.29791 8.89471 0.681152 7.40595 0.681152 5.85361C0.681152 4.30126 1.29791 2.8125 2.39575 1.71483C3.49358 0.617154 4.98257 0.000488068 6.53514 0.000488068C8.08772 0.000488068 9.5767 0.617154 10.6745 1.71483L11.0537 2.09397L11.4328 1.71497C11.4329 1.71492 11.4328 1.71501 11.4328 1.71497C11.9763 1.17134 12.6217 0.73995 13.3319 0.445715ZM18.5348 2.89134C18.1458 2.50225 17.684 2.1936 17.1757 1.98301C16.6674 1.77243 16.1226 1.66404 15.5723 1.66404C15.0221 1.66404 14.4773 1.77243 13.969 1.98301C13.4607 2.1936 12.9989 2.50225 12.6099 2.89134L11.6422 3.85896C11.3172 4.18388 10.7903 4.18388 10.4653 3.85896L9.49771 2.89148C8.71199 2.10588 7.64632 1.66453 6.53514 1.66453C5.42397 1.66453 4.3583 2.10588 3.57258 2.89148C2.78686 3.67709 2.34544 4.74259 2.34544 5.85361C2.34544 6.96462 2.78686 8.03013 3.57258 8.81573L11.0537 16.2958L18.5349 8.81573C18.9241 8.42682 19.2329 7.96493 19.4435 7.4567C19.6541 6.94847 19.7625 6.40373 19.7625 5.85361C19.7625 5.30348 19.6541 4.75874 19.4435 4.25051C19.2329 3.74229 18.9239 3.28025 18.5348 2.89134Z" fill="#EBEBF0"/>
</svg>
