<svg width="11" height="10" viewBox="0 0 11 10" fill="none" xmlns="http://www.w3.org/2000/svg">
<path fill-rule="evenodd" clip-rule="evenodd" d="M5.68115 0.909091C3.42181 0.909091 1.59024 2.74065 1.59024 5C1.59024 7.25935 3.42181 9.09091 5.68115 9.09091C7.9405 9.09091 9.77206 7.25935 9.77206 5C9.77206 2.74065 7.9405 0.909091 5.68115 0.909091ZM0.681152 5C0.681152 2.23858 2.91973 0 5.68115 0C8.44258 0 10.6812 2.23858 10.6812 5C10.6812 7.76142 8.44258 10 5.68115 10C2.91973 10 0.681152 7.76142 0.681152 5Z" fill="white"/>
<path fill-rule="evenodd" clip-rule="evenodd" d="M5.67964 2.73438C5.93068 2.73438 6.13419 2.93788 6.13419 3.18892V5.0071C6.13419 5.25814 5.93068 5.46165 5.67964 5.46165C5.4286 5.46165 5.2251 5.25814 5.2251 5.0071V3.18892C5.2251 2.93788 5.4286 2.73438 5.67964 2.73438Z" fill="white"/>
<path fill-rule="evenodd" clip-rule="evenodd" d="M5.2251 6.81001C5.2251 6.55898 5.4286 6.35547 5.67964 6.35547H5.68419C5.93523 6.35547 6.13873 6.55898 6.13873 6.81001C6.13873 7.06105 5.93523 7.26456 5.68419 7.26456H5.67964C5.4286 7.26456 5.2251 7.06105 5.2251 6.81001Z" fill="white"/>
</svg>
