<svg width="15" height="15" viewBox="0 0 15 15" fill="none" xmlns="http://www.w3.org/2000/svg">
<path d="M12.4803 5.7334H7.08036C6.41762 5.7334 5.88037 6.27065 5.88037 6.93339V12.3333C5.88037 12.9961 6.41762 13.5333 7.08036 13.5333H12.4803C13.1431 13.5333 13.6803 12.9961 13.6803 12.3333V6.93339C13.6803 6.27065 13.1431 5.7334 12.4803 5.7334Z" stroke="#262626" stroke-width="1.5" stroke-linecap="round" stroke-linejoin="round"/>
<path d="M3.47918 9.33314H2.87919C2.56093 9.33314 2.25571 9.20671 2.03067 8.98167C1.80563 8.75663 1.6792 8.4514 1.6792 8.13315V2.73319C1.6792 2.41494 1.80563 2.10971 2.03067 1.88467C2.25571 1.65963 2.56093 1.5332 2.87919 1.5332H8.27914C8.5974 1.5332 8.90262 1.65963 9.12766 1.88467C9.35271 2.10971 9.47913 2.41494 9.47913 2.73319V3.33319" stroke="#262626" stroke-width="1.5" stroke-linecap="round" stroke-linejoin="round"/>
</svg>
